<?xml version="1.0" standalone="no"?>
<!DOCTYPE svg PUBLIC "-//W3C//DTD SVG 20010904//EN"
 "http://www.w3.org/TR/2001/REC-SVG-20010904/DTD/svg10.dtd">
<svg version="1.0" xmlns="http://www.w3.org/2000/svg"
 width="512.000000pt" height="512.000000pt" viewBox="0 0 512.000000 512.000000"
 preserveAspectRatio="xMidYMid meet">
<metadata>
Created by potrace 1.14, written by Peter Selinger 2001-2017
</metadata>
<g transform="translate(0.000000,512.000000) scale(0.100000,-0.100000)"
fill="#000000" stroke="none">
<path d="M110 4959 c0 -45 -3 -58 -12 -53 -10 6 -10 4 0 -7 6 -7 12 -17 12
-22 0 -4 -6 -5 -12 -1 -10 5 -10 4 -1 -6 10 -11 10 -17 0 -29 -8 -10 -8 -13
-1 -8 8 5 12 -4 12 -28 0 -20 -5 -35 -11 -35 -8 0 -7 -3 1 -9 14 -9 13 -32 -3
-43 -7 -5 -7 -8 0 -8 6 0 11 -19 12 -42 1 -29 -1 -38 -7 -28 -6 9 -10 10 -10
3 0 -6 5 -15 10 -18 8 -5 7 -12 -2 -23 -7 -9 -8 -13 -2 -9 8 5 11 -17 11 -73
0 -53 -4 -77 -11 -73 -6 3 -5 0 2 -8 16 -18 16 -53 0 -43 -10 6 -10 5 -1 -7
10 -12 10 -18 0 -29 -8 -8 -8 -11 0 -6 7 4 11 -6 11 -29 0 -20 -5 -35 -11 -35
-8 0 -7 -3 1 -9 14 -9 13 -32 -3 -43 -7 -5 -7 -8 0 -8 6 0 11 -19 12 -42 1
-29 -1 -38 -7 -28 -6 9 -10 10 -10 3 0 -6 5 -15 10 -18 8 -5 7 -12 -2 -23 -7
-9 -8 -13 -2 -9 8 5 11 -17 11 -73 0 -53 -4 -77 -11 -73 -6 3 -5 0 2 -8 16
-18 16 -53 0 -43 -10 6 -10 5 -1 -7 10 -12 10 -18 0 -29 -8 -8 -8 -11 -1 -6 8
4 12 -6 12 -29 0 -20 -5 -35 -11 -35 -8 0 -7 -3 1 -9 14 -9 13 -32 -3 -43 -7
-5 -7 -8 0 -8 6 0 11 -19 12 -42 1 -29 -1 -38 -7 -28 -6 9 -10 10 -10 3 0 -6
5 -15 10 -18 8 -5 7 -12 -2 -23 -7 -9 -8 -13 -2 -9 8 5 11 -17 11 -73 0 -53
-4 -77 -11 -73 -6 3 -5 0 2 -8 16 -18 16 -53 0 -43 -10 6 -10 5 -1 -7 10 -12
10 -18 0 -29 -8 -8 -8 -11 -1 -6 8 4 12 -6 12 -29 0 -20 -5 -35 -11 -35 -8 0
-7 -3 1 -9 14 -9 13 -32 -3 -43 -7 -5 -7 -8 0 -8 6 0 11 -19 12 -42 1 -29 -1
-38 -7 -28 -6 9 -10 10 -10 3 0 -6 5 -15 10 -18 8 -5 7 -12 -2 -23 -7 -9 -8
-13 -2 -9 8 5 11 -17 11 -73 0 -53 -4 -77 -11 -73 -6 3 -5 0 2 -8 6 -7 12 -21
12 -32 0 -12 -4 -16 -12 -11 -10 6 -10 5 -1 -7 10 -12 10 -18 0 -29 -8 -8 -8
-11 0 -6 7 4 11 -6 11 -29 0 -20 -5 -35 -11 -35 -8 0 -7 -3 1 -9 14 -9 13 -32
-3 -43 -7 -5 -7 -8 0 -8 6 0 11 -19 12 -42 1 -29 -1 -38 -7 -28 -6 9 -10 10
-10 3 0 -6 5 -15 10 -18 8 -5 7 -12 -2 -23 -7 -9 -8 -13 -2 -9 8 5 11 -17 11
-73 0 -53 -4 -77 -11 -73 -6 3 -5 0 2 -8 6 -7 12 -21 12 -32 0 -12 -4 -16 -12
-11 -10 5 -10 4 -1 -6 10 -11 10 -17 0 -29 -8 -10 -8 -13 -1 -8 8 5 12 -4 12
-28 0 -20 -5 -35 -11 -35 -8 0 -7 -3 1 -9 14 -9 13 -32 -3 -43 -7 -5 -7 -8 0
-8 6 0 11 -19 12 -42 1 -29 -1 -38 -7 -28 -6 9 -10 10 -10 3 0 -6 5 -15 10
-18 8 -5 7 -12 -2 -23 -7 -9 -8 -13 -2 -9 8 5 11 -17 11 -73 0 -53 -4 -77 -11
-73 -6 3 -5 0 2 -8 16 -18 16 -53 0 -43 -10 6 -10 5 -1 -7 10 -12 10 -18 0
-29 -8 -8 -8 -11 0 -6 7 4 11 -6 11 -29 0 -20 -5 -35 -11 -35 -8 0 -7 -3 1 -9
14 -9 13 -32 -3 -43 -7 -5 -7 -8 0 -8 6 0 11 -19 12 -42 1 -29 -1 -38 -7 -28
-6 9 -10 10 -10 3 0 -6 5 -15 10 -18 8 -5 7 -12 -2 -23 -7 -9 -8 -13 -2 -9 8
5 11 -17 11 -73 0 -53 -4 -77 -11 -73 -6 3 -5 0 2 -8 6 -7 12 -21 12 -32 0
-12 -4 -16 -12 -11 -10 6 -10 5 -1 -7 10 -12 10 -18 0 -29 -8 -8 -8 -11 0 -6
7 4 11 -6 11 -29 0 -20 -5 -35 -11 -35 -8 0 -7 -3 1 -9 14 -9 13 -32 -3 -43
-7 -5 -7 -8 0 -8 6 0 11 -19 12 -42 1 -29 -1 -38 -7 -28 -6 9 -10 10 -10 3 0
-6 5 -15 10 -18 8 -5 7 -12 -2 -23 -7 -9 -8 -13 -2 -9 8 5 11 -17 11 -73 0
-53 -4 -77 -11 -73 -6 3 -5 0 1 -8 17 -18 17 -53 0 -43 -9 6 -9 5 0 -7 10 -12
10 -18 0 -29 -8 -8 -8 -11 -1 -6 8 4 12 -6 12 -29 0 -20 -5 -35 -11 -35 -8 0
-7 -3 1 -9 14 -9 13 -32 -3 -43 -7 -5 -7 -8 0 -8 6 0 11 -19 12 -42 1 -29 -1
-38 -7 -28 -6 9 -10 10 -10 3 0 -6 5 -15 10 -18 8 -5 7 -12 -2 -23 -7 -9 -8
-13 -2 -9 8 5 11 -17 11 -73 0 -53 -4 -77 -11 -73 -6 3 -5 0 1 -8 17 -18 17
-53 1 -43 -10 6 -10 5 -1 -7 10 -12 10 -18 0 -29 -8 -8 -8 -11 -1 -6 8 4 12
-6 12 -29 0 -20 -5 -35 -11 -35 -8 0 -7 -3 1 -9 14 -9 13 -32 -3 -43 -7 -5 -7
-8 0 -8 6 0 11 -19 12 -42 1 -29 -1 -38 -7 -28 -6 9 -10 10 -10 3 0 -6 5 -15
10 -18 8 -5 7 -12 -2 -23 -8 -9 -8 -13 -1 -9 8 5 11 -12 11 -60 0 -125 -2
-121 32 -118 20 2 27 -1 23 -9 -4 -6 0 -6 9 2 15 12 51 12 64 -1 4 -3 -6 -4
-22 -1 -16 3 -26 3 -23 -1 13 -12 50 -13 55 -2 6 17 96 16 117 -2 9 -7 14 -18
10 -24 -4 -6 -1 -7 6 -2 9 5 10 10 2 18 -17 17 -13 23 18 22 17 0 27 -4 23
-10 -3 -5 1 -5 9 1 19 16 58 12 69 -6 8 -13 10 -12 10 4 0 16 2 17 17 5 11
-10 14 -10 9 -1 -8 13 19 13 42 -1 6 -5 12 -4 12 0 0 5 18 9 39 8 23 0 37 -4
33 -10 -3 -5 1 -5 9 1 21 17 48 14 42 -5 -4 -14 -3 -14 9 -1 17 20 46 19 58 0
9 -13 10 -13 10 1 0 9 8 16 18 16 22 0 53 -27 45 -40 -4 -6 -1 -7 6 -2 9 5 10
10 2 18 -17 17 -13 23 18 22 17 0 27 -4 23 -10 -3 -5 1 -5 9 1 19 16 58 12 69
-6 8 -13 10 -12 10 4 0 16 2 17 17 5 11 -10 14 -10 9 -1 -8 13 19 13 42 -1 6
-5 12 -4 12 0 0 5 18 9 39 8 23 0 37 -4 33 -10 -3 -5 1 -5 9 1 21 17 48 14 42
-5 -4 -14 -3 -14 9 -1 17 20 46 19 58 0 9 -13 10 -13 10 1 0 9 8 16 18 16 22
0 53 -27 45 -40 -4 -6 -1 -7 6 -2 9 5 10 10 2 18 -17 17 -13 23 18 22 17 0 27
-4 23 -10 -3 -5 1 -5 9 1 19 16 58 12 69 -6 8 -13 10 -12 10 4 0 16 2 17 17 5
11 -10 14 -10 9 -1 -8 13 19 13 42 -1 6 -5 12 -4 12 0 0 5 18 9 39 8 23 0 37
-4 33 -10 -3 -5 1 -5 9 1 21 17 48 14 42 -5 -4 -14 -3 -14 9 -1 17 20 46 19
58 0 9 -13 10 -13 10 1 0 9 8 16 18 16 22 0 53 -27 45 -40 -4 -6 -1 -7 6 -2 9
5 10 10 2 18 -17 17 -13 23 18 22 17 0 27 -4 23 -10 -3 -5 1 -5 9 1 19 16 58
12 69 -6 8 -13 10 -12 10 4 0 16 2 17 17 5 11 -10 14 -10 9 -1 -8 13 19 13 42
-1 6 -5 12 -4 12 0 0 5 18 9 39 8 23 0 37 -4 33 -10 -3 -5 1 -5 9 1 21 17 48
14 42 -5 -4 -14 -3 -14 9 -1 17 20 46 19 58 0 9 -13 10 -13 10 1 0 9 8 16 18
16 22 0 53 -27 45 -40 -4 -6 -1 -7 6 -2 9 5 10 10 2 18 -17 17 -13 23 18 22
17 0 27 -4 23 -10 -3 -5 1 -5 9 1 19 16 58 12 69 -6 8 -13 10 -12 10 4 0 16 2
17 17 5 11 -10 14 -10 9 -1 -8 13 19 13 42 -1 6 -5 12 -4 12 0 0 5 18 9 39 8
23 0 37 -4 33 -10 -3 -5 1 -5 9 1 21 17 48 14 42 -5 -4 -14 -3 -14 9 -1 17 20
46 19 58 0 9 -13 10 -13 10 1 0 9 8 16 18 16 22 0 53 -27 45 -40 -4 -6 -1 -7
6 -2 9 5 10 10 2 18 -17 17 -13 23 18 22 17 0 27 -4 23 -10 -3 -5 1 -5 9 1 19
16 58 12 69 -6 8 -13 10 -12 10 4 0 16 2 17 17 5 11 -10 14 -10 9 -1 -8 13 19
13 42 -1 6 -5 12 -4 12 0 0 5 18 9 39 8 23 0 37 -4 33 -10 -3 -5 1 -5 9 1 21
17 48 14 42 -5 -4 -14 -3 -14 9 -1 20 22 41 24 55 4 11 -15 13 -15 13 -3 0 9
8 16 18 16 22 0 53 -27 45 -40 -4 -6 -1 -7 6 -2 9 5 10 10 2 18 -17 17 -13 23
18 22 17 0 27 -4 23 -10 -3 -5 1 -5 9 1 19 16 58 12 69 -6 8 -13 10 -12 10 4
0 16 2 17 17 5 11 -10 14 -10 9 -1 -8 13 19 13 42 -1 6 -5 12 -4 12 0 0 5 18
9 39 8 23 0 37 -4 33 -10 -3 -5 1 -5 9 1 21 17 48 14 42 -5 -4 -14 -3 -14 9
-1 20 22 41 24 55 4 11 -15 13 -15 13 -3 0 9 8 16 18 16 22 0 53 -27 45 -40
-4 -6 -1 -7 6 -2 9 5 10 10 2 18 -17 17 -13 23 18 22 17 0 27 -4 23 -10 -3 -5
1 -5 9 1 19 16 58 12 69 -6 8 -13 10 -12 10 4 0 16 2 17 17 5 11 -10 14 -10 9
-1 -8 13 19 13 42 -1 6 -5 12 -4 12 0 0 5 18 9 39 8 23 0 37 -4 33 -10 -3 -5
1 -5 9 1 21 17 48 14 42 -5 -4 -14 -3 -14 9 -1 20 22 41 24 55 4 11 -15 13
-15 13 -3 0 9 8 16 18 16 22 0 53 -27 45 -40 -4 -6 -1 -7 6 -2 9 5 10 10 2 18
-17 17 -13 23 18 22 17 0 27 -4 23 -10 -3 -5 1 -5 9 1 19 16 58 12 69 -6 8
-13 10 -12 10 4 0 16 2 17 17 5 11 -10 14 -10 9 -1 -8 13 19 13 42 -1 6 -5 12
-4 12 0 0 5 18 9 39 8 23 0 37 -4 33 -10 -3 -5 1 -5 9 1 21 17 48 14 42 -5 -4
-14 -3 -14 9 -1 20 22 41 24 55 4 11 -15 13 -15 13 -3 0 9 8 16 18 16 22 0 53
-27 45 -40 -4 -6 -1 -7 6 -2 9 5 10 10 2 18 -17 17 -13 23 18 22 17 0 27 -4
23 -10 -3 -5 1 -5 9 1 19 16 58 12 69 -6 8 -13 10 -12 10 4 0 16 2 17 17 5 9
-8 14 -9 11 -3 -5 7 21 10 80 9 l87 -1 -2 2426 c-1 1334 -3 2442 -3 2463 l0
37 -2455 0 -2455 0 0 -61z"/>
<path d="M259 73 c-13 -16 -12 -17 4 -4 9 7 17 15 17 17 0 8 -8 3 -21 -13z"/>
<path d="M470 81 c0 -6 4 -12 8 -15 5 -3 9 1 9 9 0 8 -4 15 -9 15 -4 0 -8 -4
-8 -9z"/>
<path d="M555 80 c-3 -5 -1 -10 4 -10 6 0 11 5 11 10 0 6 -2 10 -4 10 -3 0 -8
-4 -11 -10z"/>
<path d="M613 71 c0 -11 5 -18 9 -15 4 3 5 11 1 19 -7 21 -12 19 -10 -4z"/>
<path d="M950 81 c0 -6 4 -12 8 -15 5 -3 9 1 9 9 0 8 -4 15 -9 15 -4 0 -8 -4
-8 -9z"/>
<path d="M1035 80 c-3 -5 -1 -10 4 -10 6 0 11 5 11 10 0 6 -2 10 -4 10 -3 0
-8 -4 -11 -10z"/>
<path d="M1093 71 c0 -11 5 -18 9 -15 4 3 5 11 1 19 -7 21 -12 19 -10 -4z"/>
<path d="M1430 81 c0 -6 4 -12 8 -15 5 -3 9 1 9 9 0 8 -4 15 -9 15 -4 0 -8 -4
-8 -9z"/>
<path d="M1515 80 c-3 -5 -1 -10 4 -10 6 0 11 5 11 10 0 6 -2 10 -4 10 -3 0
-8 -4 -11 -10z"/>
<path d="M1573 71 c0 -11 5 -18 9 -15 4 3 5 11 1 19 -7 21 -12 19 -10 -4z"/>
<path d="M1910 81 c0 -6 4 -12 8 -15 5 -3 9 1 9 9 0 8 -4 15 -9 15 -4 0 -8 -4
-8 -9z"/>
<path d="M1995 80 c-3 -5 -1 -10 4 -10 6 0 11 5 11 10 0 6 -2 10 -4 10 -3 0
-8 -4 -11 -10z"/>
<path d="M2053 71 c0 -11 5 -18 9 -15 4 3 5 11 1 19 -7 21 -12 19 -10 -4z"/>
<path d="M2390 81 c0 -6 4 -12 8 -15 5 -3 9 1 9 9 0 8 -4 15 -9 15 -4 0 -8 -4
-8 -9z"/>
<path d="M2475 80 c-3 -5 -1 -10 4 -10 6 0 11 5 11 10 0 6 -2 10 -4 10 -3 0
-8 -4 -11 -10z"/>
<path d="M2533 71 c0 -11 5 -18 9 -15 4 3 5 11 1 19 -7 21 -12 19 -10 -4z"/>
<path d="M2870 81 c0 -6 4 -12 8 -15 5 -3 9 1 9 9 0 8 -4 15 -9 15 -4 0 -8 -4
-8 -9z"/>
<path d="M2955 80 c-3 -5 -1 -10 4 -10 6 0 11 5 11 10 0 6 -2 10 -4 10 -3 0
-8 -4 -11 -10z"/>
<path d="M3013 71 c0 -11 5 -18 9 -15 4 3 5 11 1 19 -7 21 -12 19 -10 -4z"/>
<path d="M3350 81 c0 -6 4 -12 8 -15 5 -3 9 1 9 9 0 8 -4 15 -9 15 -4 0 -8 -4
-8 -9z"/>
<path d="M3435 80 c-3 -5 -1 -10 4 -10 6 0 11 5 11 10 0 6 -2 10 -4 10 -3 0
-8 -4 -11 -10z"/>
<path d="M3493 71 c0 -11 5 -18 9 -15 4 3 5 11 1 19 -7 21 -12 19 -10 -4z"/>
<path d="M3830 81 c0 -6 4 -12 8 -15 5 -3 9 1 9 9 0 8 -4 15 -9 15 -4 0 -8 -4
-8 -9z"/>
<path d="M3915 80 c-3 -5 -1 -10 4 -10 6 0 11 5 11 10 0 6 -2 10 -4 10 -3 0
-8 -4 -11 -10z"/>
<path d="M3973 71 c0 -11 5 -18 9 -15 4 3 5 11 1 19 -7 21 -12 19 -10 -4z"/>
<path d="M4310 81 c0 -6 4 -12 8 -15 5 -3 9 1 9 9 0 8 -4 15 -9 15 -4 0 -8 -4
-8 -9z"/>
<path d="M4395 80 c-3 -5 -1 -10 4 -10 6 0 11 5 11 10 0 6 -2 10 -4 10 -3 0
-8 -4 -11 -10z"/>
<path d="M4453 71 c0 -11 5 -18 9 -15 4 3 5 11 1 19 -7 21 -12 19 -10 -4z"/>
<path d="M4790 81 c0 -6 4 -12 8 -15 5 -3 9 1 9 9 0 8 -4 15 -9 15 -4 0 -8 -4
-8 -9z"/>
<path d="M4870 80 c0 -5 5 -10 11 -10 5 0 7 5 4 10 -3 6 -8 10 -11 10 -2 0 -4
-4 -4 -10z"/>
<path d="M4926 80 c3 -3 16 -5 29 -5 14 -1 22 2 19 5 -3 3 -16 5 -29 5 -14 1
-22 -2 -19 -5z"/>
</g>
</svg>
